<svg xmlns="http://www.w3.org/2000/svg" viewBox="0 0 64 64" role="img" aria-label="Eco-Grocery">
  <!-- Background -->
  <rect width="64" height="64" rx="12" fill="white"></rect>
  <!-- Cart body -->
  <g fill="none" stroke="#16a34a" stroke-width="2.5" stroke-linecap="round" stroke-linejoin="round">
    <circle cx="23" cy="52" r="4" fill="#16a34a"></circle>
    <circle cx="45" cy="52" r="4" fill="#16a34a"></circle>
    <path d="M8 14h8l4 26h28l4-18H18"></path>
    <path d="M8 14c0-2 1.6-3.5 3.5-3.5H16"></path>
    <!-- Leaf sprout -->
    <path d="M34 18c0 8 3 12 8 14c-1-8 1-13 6-16c-6-1-11 0-14 2z" fill="#16a34a"></path>
    <path d="M34 18c-3-3-8-4-14-2c5 3 7 8 6 16c5-2 8-6 8-14z" fill="#22c55e"></path>
  </g>
</svg>
